<?xml version="1.0" encoding="UTF-8"?>
<svg id="Layer_1" data-name="Layer 1" xmlns="http://www.w3.org/2000/svg" version="1.1" viewBox="0 0 1080 1080">
  <defs>
    <style>
      .cls-1 {
        fill: #a13126;
        stroke-width: 0px;
      }
    </style>
  </defs>
  <path class="cls-1" d="M771.7,308.3c-61.9-61.9-144.2-96-231.7-96s-169.8,34.1-231.7,96c-61.9,61.9-96,144.2-96,231.7s34.1,169.8,96,231.7c61.9,61.9,144.2,96,231.7,96s169.8-34.1,231.7-96c61.9-61.9,96-144.2,96-231.7s-34.1-169.8-96-231.7ZM764.1,764.1c-59.9,59.9-139.4,92.8-224.1,92.8s-164.2-33-224.1-92.8c-59.9-59.9-92.8-139.4-92.8-224.1s33-164.2,92.8-224.1c59.9-59.9,139.4-92.8,224.1-92.8s164.2,33,224.1,92.8c59.9,59.9,92.8,139.4,92.8,224.1s-33,164.2-92.8,224.1Z"/>
  <path class="cls-1" d="M308.6,532.2c-.4-.4-.9-.6-1.5-.7-.7,0-3,.2-6.8.7-3.8.5-7,.6-9.4.5-.9,0-1.7-.3-2.2-.7s-.8-.9-.8-1.5c.6-6.5.3-12.4-1-17.6-1.3-5.2-3.4-9.3-6.4-12.2-3-3-6.5-4.7-10.6-5-4.7-.4-8.5,1.5-11.4,5.7-2.9,4.2-4.7,10.3-5.3,18.4-.5,6.6-.8,12.9-.9,18.7,0,.5.1,1,.5,1.3.3.4.8.6,1.3.7,5,.8,12.9,1.8,23.5,3,10.6,1.2,20.2,2.1,28.6,2.8,1.1,0,1.9-.5,2.2-1.8.3-1,.5-2.9.8-5.5.2-2.4.3-4.1.2-5.2,0-.6-.3-1.1-.7-1.5ZM279.9,527.8c0,2.2-1,3.3-2.8,3.3-4.7,0-8.8-.3-12.3-1-1.7-.3-2.6-1.4-2.6-3.3,0-2,0-4.2.3-6.5.7-9,3.4-13.2,7.9-12.9,3.1.2,5.5,2.1,7.4,5.7,1.9,3.5,2.6,8.4,2.1,14.6Z"/>
  <path class="cls-1" d="M315,481.2c-.2,0-1.5-.3-3.9-.8-2.5-.5-4.7-1-6.8-1.5-2-.5-3.9-1-5.7-1.5-4-1.2-7-3.2-8.8-6.1-1.8-2.9-2.3-5.8-1.4-8.8,1-3.6,2.9-6.3,5.7-8.1.8-.4,1.2-1,1.2-1.8,0-.8-.5-1.4-1.4-1.7-3.2-1.1-6.2-2-8.9-2.8-1.1-.3-2,0-2.8.9-.7.6-1.4,1.6-2,2.8-.7,1.2-1.2,2.4-1.5,3.6-1.8,6.3-.3,11.5,4.5,15.4.7.5.9,1,.7,1.4-.2.4-.7.5-1.5.2-1.3-.4-2.9-1.2-5.1-2.5-.5-.3-.9-.3-1.4-.1-.5.2-.9.6-1.2,1.2-.4.8-1,2.2-1.6,4.3-.5,1.7-.8,3.2-.9,4.2-.1,1,.3,1.8,1.4,2.3,3.6,1.4,7.5,2.7,11.5,4,4,1.3,7.5,2.4,10.4,3.3,2.9.9,8.2,2.4,15.9,4.7.6.2,1.1.2,1.6,0,.5-.2.8-.5,1-1,.5-1.1,1.1-2.5,1.5-4.2.6-2.1,1-3.8,1.2-5,0-.6,0-1.1-.3-1.5-.3-.5-.8-.8-1.4-.9Z"/>
  <path class="cls-1" d="M338.5,416.9c-3.2-1.5-5.4-2.5-6.7-3-.9-.4-1.7-.4-2.2,0s-.6,1.2-.2,2.1c.6,2,.8,4.3.5,6.8-.2,2.5-.8,4.7-1.8,6.6-1.3,2.5-3.2,4.6-5.7,6.3-2.5,1.7-5,2.4-7.4,2.3-.9.2-1.5,0-1.7-.6s0-1.1.9-1.5c2.8-1.9,5.3-5.1,7.5-9.5,1.9-3.7,2.4-7.5,1.5-11.3-.9-3.8-3-6.6-6.5-8.3-4.3-2.2-8.4-2.3-12.3-.4-3.9,1.9-7.1,5.5-9.7,10.7-1.9,3.7-2.7,7.3-2.7,10.9,0,3.6,1.2,7,3.4,10.2s5.3,5.8,9.4,7.9c6.5,3.3,12.5,3.9,18,2,5.5-2,9.9-6.2,13.1-12.6,1.4-2.7,2.5-5.6,3.2-8.6.8-3,1-5.6.7-7.9,0-.8-.6-1.4-1.5-1.9ZM309,433.1c-1.2.7-2.3.9-3.2.4-2.2-1.1-3.6-2.9-4-5.5-.5-2.5-.1-5,1.1-7.3,2.4-4.7,5.6-6.1,9.6-4.1,1.8.9,2.9,2.2,3.3,3.9.4,1.7.1,3.6-.9,5.7-.7,1.4-1.5,2.7-2.5,3.9-1,1.2-2.1,2.2-3.3,3Z"/>
  <path class="cls-1" d="M349,409.8c1.1-1.3,2-2.4,2.6-3.4.3-.5.4-1,.3-1.5,0-.5-.3-.9-.8-1.3-5.2-4.2-9.9-8.2-14-12.1-2.9-2.7-4.7-5.3-5.4-7.9-.8-2.6-.4-4.7,1.1-6.4,1.6-1.8,3.7-2.5,6.2-2.2,2.6.3,5.2,1.7,8,4.1,4.2,3.6,8.9,7.9,14.2,13.1.4.4.9.6,1.4.6.5,0,1-.2,1.5-.5.9-.7,2.1-1.9,3.6-3.7,1-1.1,1.8-2.2,2.4-3.2.7-1.3.6-2.2-.5-3-4.4-3.4-9.2-7.4-14.3-11.9-2.9-2.5-4.7-5.1-5.4-7.7-.7-2.6-.4-4.8,1.1-6.4,1.6-1.8,3.7-2.5,6.2-2.2,2.6.3,5.2,1.7,8,4.1,4.8,4.1,9.5,8.5,14.2,13.1.8.8,1.8.9,3,0,.8-.6,2-1.8,3.6-3.6.9-1,1.7-2,2.3-3.1.6-1.1.4-2.1-.5-2.9-2.9-2.6-8.5-7.2-16.7-13.9-5-4-9.8-6.2-14.4-6.4-4.6-.2-8.3,1.2-11.1,4.4-1.8,2-2.9,4.2-3.4,6.6-.5,2.3-.4,4.6.4,6.9,1,2.4.3,3.2-2.2,2.4-2.4-.6-4.6-.5-6.7.2-2.1.7-4,2.1-5.7,3.9-1.5,1.7-2.4,3.8-2.8,6.3-.3,2.5,0,4.9,1,7.2.4.9.4,1.4,0,1.6-.3.2-.9,0-1.6-.6-.3-.2-.5-.5-.8-.9s-.6-.8-1-1.3c-.4-.5-.8-1-1-1.3-.7-.8-1.6-.8-2.6,0-.8.6-1.8,1.6-3.1,3-1.1,1.3-2,2.4-2.5,3.3-.6.9-.4,1.8.3,2.7,4.1,4.2,8.1,8.1,11.9,11.6,3.8,3.5,9.5,8.6,17.1,15.3.5.4.9.6,1.5.6.5,0,1,0,1.4-.4.8-.6,1.8-1.6,3.2-3.1Z"/>
  <path class="cls-1" d="M371.7,324.5c-.4.4-.6.8-.6,1.2,0,.4.1.9.5,1.4,5.1,7.7,12.8,18.4,23.1,32.1.4.5.8.8,1.3.9.5.1,1,0,1.5-.2.9-.4,2.1-1.2,3.8-2.5,1.3-1,2.4-2,3.3-2.9.8-.9.8-1.9,0-2.9-10.3-13.7-18.5-24.1-24.6-31.1-.4-.5-.8-.8-1.2-.9-.4,0-.8,0-1.4.3-.9.4-1.9,1-3,1.8-1.2.9-2.2,1.8-2.9,2.6Z"/>
  <path class="cls-1" d="M367.2,320.6c1.7,0,3.3-.5,4.9-1.6,1.6-1.2,2.6-2.6,3-4.3.4-1.6,0-3.1-.9-4.4-1-1.4-2.4-2.1-4.1-2.2-1.7,0-3.3.5-4.9,1.7-1.6,1.2-2.5,2.6-2.9,4.2-.4,1.6,0,3.1,1,4.5,1,1.3,2.3,2,4,2.1Z"/>
  <path class="cls-1" d="M401.4,330.4c3.2,6,7,10,11.4,11.9s9.2,1.5,14.4-1.3c2.6-1.4,4.7-3.2,6.1-5.2,1.4-2.1,2.3-4.6,2.6-7.6,0-.9.2-1.4.5-1.5.3-.1.7.2,1.1,1,.8,1.5,1.4,2.8,1.7,3.7.2.6.5.9,1,1.1.5.2,1,.2,1.6,0,1.9-.8,3.3-1.4,4.2-1.9,1.5-.8,2.6-1.5,3.4-2.2.8-.7,1-1.6.4-2.7-2.1-3.9-3.9-7.4-5.5-10.4-1.6-3-3.6-6.5-5.9-10.5-2.3-3.9-5.1-8.4-8.2-13.4-.4-.5-.8-.9-1.3-1.1-.5-.2-1-.2-1.5,0-1.7.7-3.1,1.3-4.2,1.9-1.3.7-2.7,1.6-4,2.5-.4.4-.7.8-.8,1.3-.1.5,0,1,.4,1.5,3.5,4.5,6.8,9.4,9.7,14.9,2,3.8,2.9,7.3,2.6,10.4-.3,3.1-1.8,5.4-4.3,6.8-6.2,3.3-11.5,1-15.8-7.1-1.5-2.8-3.8-8.5-7-17-.2-.6-.6-.9-1.1-1.1-.5-.2-1-.2-1.6,0-1.3.5-2.8,1.2-4.6,2.1-1.3.7-2.4,1.4-3.3,2.1-.9.8-1.1,1.8-.6,3,3.3,7.7,6.2,14,8.8,18.8Z"/>
  <path class="cls-1" d="M454.9,322c.1.6.4,1,.8,1.4.4.3.9.5,1.4.5.9,0,2.4-.2,4.4-.7,1.6-.4,3-.8,4.1-1.3.5-.3.9-.6,1.1-1,.2-.4.3-1,.1-1.5-1.8-6.4-3.2-12.4-4.3-18-.8-3.8-.7-7,.2-9.6.9-2.6,2.4-4.1,4.6-4.6,2.3-.5,4.4,0,6.3,1.8,1.9,1.8,3.3,4.4,4.1,8,1.3,5.3,2.6,11.6,3.9,18.9.1.6.4,1,.8,1.3.4.3.9.4,1.5.4,1.1,0,2.8-.3,5.1-.9,1.4-.3,2.7-.7,3.8-1.2,1.3-.6,1.8-1.5,1.4-2.7-1.6-5.4-3.2-11.3-4.7-17.9-.9-3.7-.8-6.9.1-9.4.9-2.6,2.5-4.1,4.6-4.6,2.3-.5,4.4,0,6.3,1.8,1.9,1.8,3.3,4.4,4.1,8,1.5,6.1,2.8,12.4,3.9,18.9.2,1.2,1,1.8,2.4,1.8,1,0,2.7-.3,5-.8,1.3-.3,2.5-.7,3.7-1.2,1.1-.5,1.6-1.4,1.3-2.7-.9-3.8-2.7-10.8-5.5-21.1-1.7-6.2-4.4-10.7-8-13.6-3.6-2.9-7.5-3.8-11.6-2.9-2.6.6-4.8,1.7-6.6,3.3-1.8,1.6-3,3.6-3.7,5.9-.6,2.5-1.6,2.7-3.2.7-1.6-1.9-3.4-3.1-5.6-3.8-2.2-.6-4.5-.7-6.9-.1-2.2.5-4.2,1.7-5.9,3.5-1.7,1.8-2.8,3.9-3.4,6.4-.2.9-.5,1.4-.9,1.3-.4,0-.7-.5-.9-1.4,0-.3-.1-.7-.1-1.2,0-.4,0-1,0-1.7,0-.7,0-1.2,0-1.7,0-1.1-.8-1.6-2.1-1.6-1,0-2.4.2-4.3.7-1.7.4-3,.8-3.9,1.2-1,.4-1.4,1.2-1.3,2.4.9,5.9,1.9,11.3,2.9,16.4,1,5.1,2.7,12.5,5,22.4Z"/>
  <path class="cls-1" d="M557.4,274.6l3.4.4c.4,0,.8.3,1,.6.2.4.3.8.3,1.3-1.7,11.5-3.2,22.1-4.3,31.9-.2,1.3.4,2.1,1.6,2.5,1.2.4,2.9.7,5.2.9,2.1.2,3.8.3,5,.3,1.3-.2,2-.8,2-2,0-.4,0-1.8.2-4,0-2.3.1-3.8.2-4.7,0-.9.1-2.6.3-5.3.1-2.6.3-4.6.4-5.8.1-1.2.3-3.3.6-6.2.3-2.9.5-5.1.8-6.4,0-.5.3-1,.6-1.3.3-.3.7-.4,1.2-.4,1.7.2,4.9.8,9.5,1.8.6,0,1.1,0,1.6-.4.5-.4.7-.9.8-1.5.2-1.4.4-2.7.5-4,0-.7,0-1.2-.5-1.7-.4-.5-.9-.7-1.6-.7-2.3,0-4.3-.1-6.1-.3-1.3-.2-2.4-.5-3.3-1.1-.9-.6-1.3-1.2-1.3-2,0-1.1.5-1.9,1.5-2.5.9-.6,2.1-.9,3.4-.7.9.1,1.8.4,2.8,1,1,.5,1.7,1.2,2.3,1.9.6.8,1.3,1.1,2,.9.8-.2,1.2-.9,1.3-2,.3-2.8.6-4.9.6-6.1.1-1.1-.2-1.9-1-2.3-2.5-1.5-5.3-2.5-8.4-2.9-2.2-.3-4.3-.2-6.2.1-1.9.3-3.6,1-5.2,1.9-1.5.9-2.7,2.3-3.6,4.1-.8,1.8-1.2,3.9-1.1,6.3,0,.4-.1.7-.5.9-.3.2-.7.3-1.1.2l-4-.5c-.6,0-1.1,0-1.6.5-.5.4-.7.9-.8,1.4l-.4,3.2c0,.6,0,1.1.4,1.6.4.5.9.7,1.5.8Z"/>
  <path class="cls-1" d="M603.8,320.3c2.9.9,5.5,1.1,8,.7,2.5-.4,4.9-1.6,7.3-3.5.7-.6,1.1-.8,1.4-.6.3.2.3.7,0,1.5-.5,1.7-1,2.9-1.4,3.8-.3.5-.3,1-.1,1.5.2.5.6.9,1.1,1.2,1.9.8,3.3,1.4,4.3,1.7,1.6.5,2.9.8,3.9.9,1.1,0,1.8-.5,2.2-1.6,1.3-4.2,2.5-8,3.5-11.3,1-3.3,2.1-7.2,3.3-11.6,1.2-4.4,2.4-9.5,3.8-15.3.1-.6,0-1.2-.2-1.7-.2-.5-.5-.9-1-1.1-1.7-.7-3.1-1.3-4.3-1.7-1.5-.5-3-.8-4.6-1.1-.6,0-1.1,0-1.5.4-.4.3-.7.7-.8,1.3-.7,5.7-2,11.4-3.8,17.3-1.3,4.1-3.2,7.2-5.6,9.2-2.5,2-5.1,2.5-7.9,1.7-6.7-2.1-8.8-7.5-6-16.3,1-3.1,3.4-8.7,7.2-16.9.3-.6.3-1.1,0-1.5-.2-.5-.6-.9-1.1-1.1-1.2-.6-2.8-1.2-4.8-1.8-1.4-.4-2.7-.7-3.9-.9-1.2-.1-2.1.4-2.5,1.6-3.2,7.7-5.6,14.2-7.3,19.5-2,6.5-2.2,12-.5,16.5,1.7,4.5,5.4,7.6,11.1,9.3Z"/>
  <path class="cls-1" d="M636.1,329.7c0,.5.3.9.8,1.3.9.8,2.2,1.6,3.8,2.6,1.8,1,3.3,1.7,4.3,2.1.5.2,1.1.2,1.6,0,.5-.2.9-.5,1.1-1.1,1.8-4.2,4.5-9.5,8-15.9,2.1-3.7,4.7-6.2,7.7-7.5,3-1.3,5.9-1.1,8.7.5,2.8,1.6,4.4,4,4.9,7.2.4,3.2-.4,6.6-2.5,10.4-2.9,5.2-6.1,10.3-9.5,15.2-.7,1-.5,2,.6,2.9,1.1.9,2.4,1.8,4,2.7,1.4.8,2.7,1.4,3.8,1.8,1.2.4,2.2,0,2.8-1.1,3.3-5.7,6.6-11.9,9.9-18.3,3-5.8,4.1-11.2,3.2-16.1-.9-4.9-3.4-8.6-7.7-11.1-2.5-1.4-4.9-2.2-7.4-2.2-2.4,0-5.1.5-8,1.8-.8.4-1.4.5-1.6.3-.2-.2-.1-.8.4-1.5.8-1.1,1.6-2.1,2.7-3.1.4-.4.6-.9.5-1.4,0-.5-.4-.9-.8-1.3-1.1-.9-2.3-1.7-3.7-2.5-1.5-.8-2.7-1.4-3.7-1.7-1-.4-1.8,0-2.6.9-3.4,4.7-6.4,9.3-9.1,13.6-2.7,4.4-6.6,11-11.7,19.9-.3.6-.5,1.1-.4,1.6Z"/>
  <path class="cls-1" d="M686.9,356.1c.4,5.7,3.2,10.8,8.3,15.4,1.8,1.6,3.9,3.2,6.3,4.8,2.4,1.6,4.5,2.7,6.3,3.5.5.2,1,.1,1.6,0,.6-.2,1-.6,1.4-1.1,1.6-2,3.2-4.2,4.9-6.5.7-.9.8-1.6.4-2.4-.4-.7-1.1-1-2.1-.8-1.9.1-3.8-.2-5.7-.9-2-.7-3.6-1.7-5-2.9-2.8-2.5-4.3-5.2-4.5-8.3-.2-3.1.9-6.1,3.5-9,2.7-3,5.6-4.7,8.6-5,3-.3,5.9.8,8.6,3.2,1.2,1.1,2.4,2.5,3.4,4.3,1.1,1.8,1.7,3.4,1.9,4.9,0,1.1.3,1.8,1,2.1.7.3,1.4,0,2.3-.8.7-.7,1.7-1.7,3.1-3,1.3-1.4,2.1-2.1,2.3-2.3.4-.4.6-.9.7-1.5,0-.6,0-1.2-.3-1.7-.7-1.4-1.9-3.1-3.5-5.1-1.7-2-3.4-3.7-5.1-5.3-5-4.5-10.4-6.5-16.2-6.2-5.8.3-11,3.1-15.6,8.3-4.7,5.2-6.8,10.7-6.3,16.4Z"/>
  <path class="cls-1" d="M766.9,395c1.2-4.9.3-9.3-2.6-13.2-1.7-2.3-3.7-4-5.9-5-2.2-1.1-4.9-1.6-8-1.5-.9,0-1.4-.1-1.5-.5,0-.4.3-.8,1.1-1.4,3.4-2.4,8.5-5.5,15.3-9.5.5-.3.8-.7.9-1.2,0-.5,0-1-.2-1.5-.6-1.2-1.5-2.6-2.6-4.1-1-1.4-1.9-2.4-2.7-3.1-.8-.8-1.7-.8-2.7,0-9,5.6-23.7,15.8-44,30.7-.5.4-.9.8-1,1.3-.1.5,0,1,.2,1.5.9,1.6,1.8,2.9,2.5,4,.9,1.2,1.9,2.4,3,3.6.4.4.9.7,1.4.7.5,0,1-.1,1.5-.6,3.4-3.1,7.9-6.9,13.7-11.4,3.5-2.6,6.8-3.8,10.1-3.8,3.3,0,5.8,1.3,7.7,3.9,1.9,2.6,2.5,5.5,1.6,8.5-.9,3.1-3,5.9-6.4,8.6-5.3,3.9-10.3,7.3-14.8,10-.5.4-.8.8-.9,1.3,0,.5,0,1,.3,1.6.6,1.2,1.5,2.6,2.7,4.2.6.8,1.5,1.9,2.7,3.2.4.4.9.7,1.4.7.5,0,1.1-.1,1.6-.5,4-3,9.5-7.3,16.3-12.9,5.1-4.1,8.2-8.6,9.4-13.4Z"/>
  <path class="cls-1" d="M779.7,459.1c4.3-1.9,7.7-4.5,10-7.7,2.4-3.2,3.7-6.7,4-10.5.3-3.8-.5-7.7-2.3-11.7-2.7-6.1-6.8-10.2-12.2-12.4-5.4-2.2-11.4-1.8-17.9,1.1-3.3,1.5-6,3.3-8.2,5.5-2.1,2.2-3.6,4.6-4.4,7.2-.8,2.6-1.1,5.3-.9,8.2.3,2.9,1,5.8,2.4,8.8,1.3,3,3,5.5,4.9,7.6,2,2.1,4.2,3.7,6.7,4.8,2.5,1.1,5.2,1.6,8.3,1.4,3.1-.1,6.2-1,9.5-2.4ZM765.3,449.7c-3-.9-5.1-2.9-6.4-5.8-1.3-3-1.4-5.9,0-8.7,1.3-2.8,3.8-5,7.6-6.7,3.6-1.6,6.9-2,9.9-1.1s5.1,2.8,6.4,5.8c1.3,3,1.4,5.9,0,8.7-1.3,2.8-3.8,5-7.4,6.6-3.8,1.7-7.1,2.1-10.1,1.2Z"/>
  <path class="cls-1" d="M781.6,507.9c1.9-.4,3.6-1.3,4.9-2.6,1.3-1.3,2.3-2.8,2.9-4.6.6-1.7,1-3.6,1.3-5.6.3-2,.5-4,.6-5.9,0-2,.2-3.8.4-5.4.1-1.6.4-3,.9-4.1.4-1.1,1.1-1.8,1.9-1.9,1.2-.3,2.3.3,3.4,1.7,1.1,1.4,1.9,3.2,2.4,5.5.5,2.1.6,4.3.4,6.6-.2,2.3-.6,4.3-1.4,6.1-.5.7-.6,1.4-.2,2,.4.6,1.2.8,2.5.5,2.8-.6,5-1.1,6.4-1.5,1.3-.3,2-1.2,2.2-2.7.1-1.9,0-4.1-.2-6.7-.3-2.6-.6-5-1.1-7-.8-3.7-2-6.9-3.5-9.6-1.5-2.6-3.3-4.6-5.5-5.9-2.2-1.3-4.5-1.6-7-1-1.9.4-3.5,1.3-4.8,2.6-1.3,1.3-2.2,2.8-2.8,4.5-.6,1.7-1,3.6-1.3,5.6-.3,2-.5,4-.6,5.9,0,1.9-.2,3.7-.4,5.4-.2,1.6-.5,3-1,4.1-.5,1.1-1.2,1.8-2.1,2-1.5.3-2.8,0-3.7-1.3-1-1.2-1.8-3.2-2.4-5.9-.6-2.6-.7-5.5-.4-8.7.3-3.1,1.1-5.8,2.2-7.9.6-.7.7-1.3.2-2-.4-.7-1.2-.9-2.3-.8-.9.1-2.2.4-3.9.7-1.7.3-3,.5-3.9.7-1.4.2-2.1,1.1-2.3,2.5-.2,2.5-.2,5.6,0,9.1.2,3.5.6,6.6,1.2,9.2,1.4,6.2,3.6,10.7,6.6,13.5,3,2.8,6.4,3.8,10.3,2.9Z"/>
  <path class="cls-1" d="M812.5,523.9c-1.8-3.1-4.4-5.6-7.8-7.4-3.4-1.8-7.4-2.6-12-2.5-7.3.2-12.9,2.5-16.8,6.8-3.9,4.3-5.8,10.1-5.6,17.3,0,3.1.5,6.1,1.2,9.1.7,3,1.8,5.5,3.1,7.3.4.7,1.2,1,2.2,1,3.5-.2,5.9-.4,7.3-.5,1,0,1.7-.4,1.9-1.1.2-.7,0-1.3-.8-1.9-1.5-1.5-2.7-3.4-3.6-5.7-1-2.3-1.5-4.5-1.5-6.6,0-2.8.6-5.5,2-8.2,1.4-2.7,3.2-4.5,5.4-5.5.7-.6,1.3-.7,1.8-.3.5.4.4,1,0,1.8-1.5,3-2.2,7-2.1,11.9.1,4.2,1.5,7.7,4,10.7,2.6,2.9,5.8,4.4,9.7,4.3,4.8-.1,8.5-2,11-5.5,2.5-3.5,3.7-8.2,3.5-14-.1-4.1-1.1-7.8-2.8-10.9ZM799.8,543.3c-2,0-3.6-.6-4.8-1.9-1.2-1.3-1.8-3.1-1.9-5.4,0-1.5,0-3.1.3-4.6.3-1.6.8-3,1.5-4.2.7-1.2,1.6-1.9,2.6-1.9,2.5,0,4.5.9,6.1,2.9,1.6,2,2.4,4.3,2.5,6.9.1,5.3-2,8-6.5,8.1Z"/>
  <path class="cls-1" d="M391.3,754.1c-.9-1.4-1.8-2.8-2.8-4-1-1.3-1.9-2.5-2.7-3.6-.8-1.1-1.3-2.1-1.7-3-.3-.9-.3-1.7.2-2.2.6-.8,1.6-1.1,3-.8,1.4.3,2.9,1,4.5,2.2,1.4,1.1,2.7,2.3,3.8,3.9,1.1,1.5,1.9,3,2.4,4.5,0,.7.4,1.2,1,1.4.6.2,1.2-.2,1.8-1,1.4-1.9,2.5-3.4,3.2-4.4.6-.9.6-1.8,0-2.8-.9-1.2-2.2-2.6-3.7-4.1-1.6-1.5-3.1-2.8-4.5-3.8-2.5-1.9-5-3.2-7.3-4.1-2.4-.8-4.6-1.1-6.6-.7-2,.4-3.7,1.4-4.9,3.1-1,1.3-1.5,2.7-1.6,4.2-.1,1.5.1,2.9.7,4.3.6,1.4,1.3,2.8,2.2,4.2.9,1.4,1.8,2.7,2.8,4,1,1.3,1.9,2.4,2.7,3.6.8,1.1,1.3,2.1,1.6,3.1.3,1,.2,1.7-.3,2.4-.8,1-1.8,1.4-3,1.2-1.3-.2-2.8-1-4.7-2.4-1.8-1.3-3.4-3.1-4.9-5.2-1.5-2.1-2.4-4.2-2.9-6.1,0-.7-.3-1.2-.9-1.4-.6-.2-1.2,0-1.8.7-.5.6-1.2,1.4-2.1,2.5-.9,1.1-1.6,2-2.1,2.5-.7.9-.8,1.8-.1,2.8,1.2,1.7,2.9,3.6,4.9,5.6,2,2.1,3.9,3.7,5.7,5.1,4.2,3.1,8,4.8,11.4,4.9,3.4.2,6-1.1,8-3.7,1-1.3,1.5-2.7,1.6-4.3.1-1.5-.1-3-.7-4.4-.6-1.4-1.3-2.8-2.2-4.2Z"/>
  <path class="cls-1" d="M418.9,748c1.4.8,2.8,1.2,4.2.9,1.4-.2,2.4-.9,3.1-2.1.7-1.2.9-2.5.4-3.8-.5-1.3-1.4-2.4-2.8-3.2-1.4-.8-2.8-1.1-4.1-.9-1.4.2-2.4.9-3.1,2.1-.7,1.2-.8,2.4-.4,3.7.4,1.3,1.4,2.4,2.8,3.2Z"/>
  <path class="cls-1" d="M420.4,753.5c0-.3-.3-.6-.6-1-.6-.5-1.4-1.1-2.3-1.7-1.1-.7-2-1.1-2.9-1.4-.4-.2-.8-.2-1.1-.1-.3,0-.6.4-.9.8-4.3,6.3-10.1,15.4-17.3,27.5-.3.4-.4.9-.3,1.3,0,.4.3.8.6,1.1.6.5,1.6,1.3,3.1,2.2,1.2.7,2.3,1.3,3.2,1.6,1,.3,1.7,0,2.2-.8,7.3-12.1,12.6-21.6,16.1-28.4.3-.5.4-.9.3-1.2Z"/>
  <path class="cls-1" d="M447.3,765.5c-2.1-.9-4.2-1.3-6.2-1.2-2,.2-4.1.9-6.4,2.2-.6.4-1.1.6-1.3.4-.2-.2-.2-.6.2-1.3.5-1,1.2-1.9,1.9-2.7.3-.4.4-.8.3-1.2-.1-.4-.4-.7-.8-1-1-.6-2.1-1.2-3.3-1.7-1.3-.6-2.3-.9-3.2-1.1-.8-.2-1.5.1-2,1-2.3,4.2-4.4,8.2-6.2,12-1.8,3.8-4.4,9.6-7.8,17.3-.2.5-.3.9-.2,1.4.1.4.4.7.7,1,.8.5,1.9,1.1,3.4,1.8,1.6.7,2.8,1.1,3.7,1.3.5.1.9.1,1.3,0,.4-.2.7-.5.8-1,1.1-3.6,2.8-8.2,5.1-13.7,1.4-3.2,3.3-5.5,5.7-6.8,2.4-1.3,4.7-1.4,7.1-.4,2.5,1.1,4,2.9,4.6,5.4.6,2.5.3,5.5-1.1,8.8-1.9,4.6-4,9-6.4,13.3-.4.9-.2,1.6.7,2.3,1,.6,2.1,1.2,3.6,1.8,1.2.5,2.3.9,3.3,1.1,1.1.2,1.8-.1,2.2-1.1,2.2-5,4.3-10.3,6.4-15.9,2-5,2.3-9.5,1.2-13.5-1.2-4-3.6-6.7-7.3-8.4Z"/>
  <path class="cls-1" d="M492.4,781.3c-1-.8-2.5-1.6-4.5-2.4-2-.8-3.9-1.5-5.8-1.9-5.4-1.4-10.1-.9-14.2,1.6-4.1,2.4-6.9,6.4-8.3,12-1.4,5.6-.9,10.4,1.5,14.4,2.5,4,6.4,6.7,11.9,8.1,1.9.5,4.1.9,6.4,1.1,2.3.3,4.3.3,5.9.2.4,0,.8-.3,1.1-.6.3-.4.5-.8.6-1.3.4-2.1.8-4.3,1.2-6.6.2-.9,0-1.5-.6-1.9-.6-.4-1.1-.3-1.8.2-1.3.8-2.8,1.3-4.5,1.5-1.7.2-3.3.1-4.7-.2-3-.8-5.1-2.2-6.4-4.4-1.3-2.2-1.6-4.8-.8-7.9.8-3.2,2.3-5.5,4.4-6.9,2.1-1.3,4.6-1.7,7.5-.9,1.3.3,2.7,1,4.1,1.9,1.4.9,2.5,1.9,3.2,2.9.4.8.9,1.2,1.5,1.2.6,0,1-.5,1.4-1.4.3-.8.7-1.9,1.1-3.4.5-1.5.7-2.3.8-2.5.1-.4.1-.9,0-1.3-.2-.5-.5-.9-.9-1.2Z"/>
  <path class="cls-1" d="M515.7,782.7c-3.4-.3-6.4,0-9.2,1.2-2.8,1.1-5,3-6.9,5.6-1.8,2.6-2.9,5.8-3.3,9.5-.6,6,.6,10.8,3.8,14.4,3.1,3.7,7.6,5.8,13.5,6.4,2.5.3,5,.2,7.6,0,2.5-.3,4.6-.9,6.3-1.7.6-.3.9-.9,1-1.7.2-2.9.3-4.9.4-6,0-.9-.2-1.4-.7-1.7-.5-.3-1.1-.1-1.6.5-1.4,1-3,1.8-5,2.4-2,.5-3.9.7-5.6.6-2.3-.2-4.5-1.1-6.5-2.5-2-1.4-3.3-3.1-3.9-5-.4-.7-.4-1.2,0-1.5.4-.3.8-.3,1.4.2,2.3,1.6,5.5,2.5,9.5,3,3.4.3,6.5-.4,9.1-2.2,2.7-1.8,4.2-4.3,4.5-7.5.4-4-.7-7.1-3.3-9.6-2.6-2.4-6.3-3.9-11.1-4.4ZM521,796.2c-.2,1.6-.8,2.9-2,3.7-1.2.8-2.7,1.2-4.6,1-1.2-.1-2.5-.4-3.7-.8-1.2-.4-2.3-.9-3.2-1.7-.9-.7-1.3-1.5-1.3-2.3.2-2,1.2-3.6,3-4.7,1.8-1.1,3.8-1.5,5.9-1.3,4.3.4,6.3,2.5,6,6.2Z"/>
  <path class="cls-1" d="M597.8,800.3c-.7-.1-1.2.1-1.6.8-1.8,2.4-3.9,4.3-6.2,5.6-2.3,1.3-5.2,2.2-8.7,2.7-4.1.6-7.1.8-8.8.6-1.7-.2-2.7-.9-2.9-2-.1-.8,0-1.6.7-2.4.6-.8,1.3-1.6,2.4-2.4,1-.8,2.2-1.6,3.6-2.4,1.3-.8,2.8-1.7,4.3-2.6,1.5-.9,3-1.8,4.5-2.8,1.5-1,2.9-2,4.2-3.1,1.3-1.1,2.4-2.3,3.4-3.5,1-1.2,1.7-2.5,2.1-4,.5-1.5.6-3,.3-4.6-.4-2.6-1.6-4.8-3.6-6.4-2-1.6-4.4-2.6-7.4-3.1-3-.4-6.3-.4-10.1.2-2.6.4-5.2,1-7.9,1.9-2.7.9-5,2-6.9,3.2-.7.5-1,1.2-.9,2.1.2,2.4.5,5.3.9,8.7.1.9.5,1.4,1.2,1.6.7.2,1.2,0,1.6-.7,1.5-2.1,3.4-3.9,5.9-5.5,2.4-1.6,4.9-2.6,7.4-2.9,2.6-.4,4.8-.3,6.6.2,1.8.5,2.9,1.5,3.1,3,.1.9,0,1.8-.6,2.7-.5.9-1.3,1.8-2.3,2.6-1,.8-2.2,1.7-3.5,2.6-1.3.9-2.8,1.8-4.3,2.7-1.5.9-3,1.9-4.5,2.9-1.5,1-2.9,2.1-4.2,3.3-1.3,1.2-2.4,2.4-3.4,3.7-1,1.3-1.7,2.7-2.1,4.3-.4,1.6-.5,3.2-.3,4.9l.7,4.7c.2,1.2.5,2,1.1,2.5s1.4.7,2.5.7c1.6,0,7-.8,15.9-2.1,9.9-1.5,16.5-2.6,19.8-3.3.6-.1.9-.4,1.2-.8.2-.4.3-.9.2-1.4l-2.1-10.5c-.2-.9-.6-1.4-1.3-1.5Z"/>
  <path class="cls-1" d="M633,761.7c-5-2.9-10.6-3.3-16.8-1.1-6.1,2.1-10.3,5.9-12.4,11.3-2.1,5.4-2,11.7.6,18.9,2.5,7.1,6.1,11.9,10.9,14.3,4.8,2.5,10.3,2.6,16.5.4,6.2-2.2,10.5-5.7,12.8-10.6,2.3-4.9,2.2-10.9-.3-18-2.5-7.2-6.3-12.3-11.3-15.1ZM635.2,791.2c-1,3-3,5.1-6.1,6.2-3.1,1.1-6,.7-8.6-1-2.6-1.8-4.8-4.9-6.3-9.5-1.6-4.6-2-8.5-1.1-11.7.9-3.2,2.9-5.4,6.1-6.5,3.1-1.1,6.1-.6,8.8,1.4,2.7,2,4.9,5.3,6.4,9.9,1.6,4.6,1.9,8.4.9,11.4Z"/>
  <path class="cls-1" d="M655.3,745.4c-.2-.4-.5-.6-.9-.7-.4-.1-.8-.1-1.2,0-.9.3-2.2.9-4.1,1.8-.9.5-2.4,1.4-4.5,2.8-2.1,1.4-3.8,2.6-5.1,3.7-.3.3-.5.6-.6,1.1,0,.4,0,.9.2,1.2.3.5.8,1.4,1.6,2.8.8,1.3,1.4,2.3,1.7,2.9.4.6.8,1,1.4,1,.6,0,1-.3,1.3-.8,1.1-1.8,2.3-3,3.6-3.6.7-.4,1.3-.4,1.9,0,.6.4,1.2,1.2,1.9,2.4,2.2,4,4.6,8.8,7.2,14.4,2.6,5.5,4.6,10.3,6.1,14.2.2.4.4.7.8.9.4.2.8.2,1.3,0,.8-.3,2.1-.9,3.9-1.8,1.4-.7,2.6-1.5,3.6-2.2.4-.3.6-.6.7-1,.1-.4,0-.8-.2-1.2-9.2-17.5-16.1-30.1-20.9-37.8Z"/>
  <path class="cls-1" d="M691.9,726.1c-5.6-1.3-11.1-.1-16.4,3.7-5.3,3.8-8.2,8.6-8.7,14.3-.5,5.8,1.4,11.7,5.9,17.9,4.4,6.1,9.2,9.6,14.5,10.6,5.3,1,10.6-.4,16-4.3,5.4-3.9,8.4-8.5,9.2-13.8.8-5.4-1-11.1-5.4-17.2-4.5-6.2-9.5-10-15.1-11.3ZM698.2,761.5c-2.7,1.9-5.5,2.4-8.6,1.5-3-.9-6-3.4-8.8-7.3-2.8-3.9-4.3-7.6-4.4-10.9,0-3.3,1.2-6,4-8,2.7-1.9,5.6-2.3,8.8-1.2,3.2,1.1,6.2,3.7,9,7.6,2.8,3.9,4.2,7.5,4.1,10.7,0,3.2-1.5,5.7-4.1,7.7Z"/>
  <path class="cls-1" d="M591,616.4h-4c-.8,0-1.2.4-1.2,1.2v5.3c0,.4.1.7.3.9s.5.3.9.3h4.1c1.2,0,2.2-.3,2.9-1,.7-.7,1-1.6,1-3s-.4-2.3-1.1-2.9c-.7-.6-1.7-.9-2.9-.9Z"/>
  <path class="cls-1" d="M540,344.7c-107.9,0-195.3,87.5-195.3,195.3s87.5,195.3,195.3,195.3,195.3-87.5,195.3-195.3-87.5-195.3-195.3-195.3ZM602.5,638.8c-3.2,3.6-7.4,5.5-12.7,5.5s-6.7-.8-9.3-2.5c-2.7-1.7-4.7-4-6.1-7-1.4-3-2.1-6.4-2.1-10.3s.7-7.3,2.1-10.3c1.4-3,3.4-5.3,6.1-6.9,2.7-1.7,5.7-2.5,9.3-2.5s6.7.8,9.3,2.5c2.7,1.7,4.7,4,6.1,6.9,1.4,3,2.1,6.4,2.1,10.3,0,5.9-1.6,10.7-4.8,14.4ZM649.9,492c-3.3,17.9-13.6,35.4-28.4,48.2-28.4,24.5-65.2,32.2-99.6,33.2.4,7.5.4,15-.7,22.2-5.5,37.1-36.1,59.5-86.3,63l-1.2-14.3c29.6-2.1,66.1-12.6,71.7-50.6,1-6.4.9-13.2.5-20.3-13.1-.3-25.6-1.5-36.9-2.8l2.1-14.2c11.9,1.4,23.1,2.2,33.6,2.5,0-.4,0-.7-.1-1.1-2.4-24.7-4.9-50.3,12.8-71.7,10.7-12.9,33.4-18.7,50.6-13,13.2,4.4,20.5,15,19.5,28.3l-15.9-1c.5-7.1-2.5-11.7-9.1-13.9-10.5-3.5-25.8.4-32.3,8.2-14.1,17-12,38.8-9.7,61.9,0,.8.2,1.6.2,2.4,39.1-1,68.2-10.5,89.7-29.1,12.3-10.6,20.9-25.3,23.7-40.2,2-11.2,1.6-27.4-12.1-40.9-11.9-11.7-31.4-18.2-55-18.2s-.5,0-.8,0c-21.8.1-44.5,5.8-60.7,15.1-37.4,21.6-54.4,53.7-50.4,95.3l-15.9,1.2c-4.5-47.4,14.9-83.9,57.7-108.6,18.6-10.7,44.5-17.2,69.2-17.4,28.5-.2,52.5,8,67.6,22.9,14.1,13.9,19.8,32.7,16.1,52.9Z"/>
  <path class="cls-1" d="M589.7,607.7c-4.4,0-8,1.5-10.5,4.6-2.6,3.1-3.9,7.1-3.9,12.2s1.3,9.1,3.9,12.1c2.6,3.1,6.1,4.6,10.5,4.6s8-1.5,10.5-4.6c2.6-3.1,3.9-7.1,3.9-12.2s-1.3-9.1-3.9-12.1c-2.6-3.1-6.1-4.6-10.5-4.6ZM595.5,627.8l3,5.7c.4.6.5,1,.3,1.5-.2.4-.6.6-1.3.6h-1.1c-1,0-1.7-.4-2.1-1.2l-2.8-5.8c-.3-.6-.8-.9-1.5-.9h-3c-.8,0-1.2.4-1.2,1.2v4.9c0,1.2-.6,1.7-1.7,1.7h-.8c-1.1,0-1.7-.6-1.7-1.7v-19.4c0-.5.1-1,.4-1.3.3-.3.7-.4,1.3-.4h7.6c2.6,0,4.6.6,6.1,1.9,1.5,1.3,2.3,3.1,2.3,5.5s-1.1,4.8-3.2,6.1c-.7.4-.9.9-.5,1.6Z"/>
</svg>